<svg
      class="inline-block" viewBox="0 0 978 379"
      xmlns="http://www.w3.org/2000/svg">
    <g class="logo-part">
      <path
          d="M378.916 189.457C378.916 294.092 294.093 378.916 189.459 378.916C84.824 378.916 0 294.092 0 189.457C0 84.8227 84.824 -1.12926e-05 189.459 -1.12926e-05C294.093 -1.12926e-05 378.916 84.8227 378.916 189.457Z"
          fill="white"/>
      <path
          d="M189.446 353.007C279.436 353.008 352.936 279.707 353.054 189.875C353.173 100.245 280.754 25.6975 189.276 25.9508C98.6837 26.2015 25.985 99.3695 25.8917 189.3C25.801 279.431 99.3063 353.007 189.446 353.007ZM189.214 366.172C91.2983 366.172 12.6997 286.688 12.729 187.699C12.757 91.6561 92.945 12.2801 190.244 12.7441C289.014 13.2148 367.646 93.9228 366.168 192.185C364.713 288.813 285.805 366.331 189.214 366.172Z"
          fill="#26963B"/>


      <path
          d="M287.723 104.474C288.627 114.572 289.218 124.66 288.738 134.829C287.114 169.233 278.563 201.637 260.754 231.26C244.343 258.556 222.636 280.158 192.706 292.59C170.546 301.794 147.598 300.59 124.563 297.901C111.358 296.36 111.516 296.229 104.991 308.128C103.21 311.376 103.22 312.896 106.626 314.993C145.283 338.805 186.624 345.029 229.976 331.96C320.92 304.545 363.118 202.042 318.532 118.208C309.612 101.433 297.743 87.0065 282.724 74.9998C284.886 84.7945 286.832 94.5438 287.723 104.474Z"
          fill="url(#paint0_linear_29_3)"/>
      <path
          d="M249.739 157.253C245.526 167.221 239.088 175.579 232.1 183.53C214.484 203.573 193.648 219.986 172.399 235.873C145.58 255.925 120.011 277.311 98.7497 303.385C96.391 306.275 94.9497 305.254 92.899 303.463C64.9763 279.075 47.2723 248.863 42.011 212.015C32.571 145.906 64.5203 83.9752 123.986 55.4459C172.815 32.0192 221.176 35.0685 268.034 62.3352C271.579 64.3978 271.491 66.1018 269.547 69.1658C264.316 77.4138 256.979 83.3058 248.823 88.3125C230.524 99.5458 210.688 107.698 191.378 116.906C167.682 128.206 144.756 140.778 125.551 159.055C106.286 177.391 93.275 198.873 92.8603 226.407C92.6417 240.919 95.063 255.051 99.027 268.962C99.7497 271.495 100.836 271.799 102.602 269.809C123.148 246.647 149.667 231.497 175.666 215.746C201.968 199.81 226.642 181.925 247.578 159.219C248.235 158.506 249.015 157.906 249.739 157.253Z"
          fill="#26963B"/>
      <defs>
        <linearGradient
            id="paint0_linear_29_3" x1="138.839" y1="365.449" x2="340.165" y2="121.949"
            gradientUnits="userSpaceOnUse">
          <stop stop-color="#A27F25"/>
          <stop offset="0.257528" stop-color="#833920"/>
          <stop offset="0.514512" stop-color="#D09211"/>
          <stop offset="0.75419" stop-color="#FFCE2B"/>
          <stop offset="0.928518" stop-color="#FECE60"/>
          <stop offset="1" stop-color="#ECB224"/>
        </linearGradient>
      </defs>
    </g>
    <g v-if="letters" class="letters-part">
      <path
          d="M907.005 186.531C907.005 186.405 907.005 186.276 907.007 186.151C910.247 186.151 913.491 186.204 916.731 186.136C920.198 186.062 923.662 185.773 927.127 185.752C937.438 185.696 937.44 185.73 936.254 175.389C936.177 174.701 936.044 174.016 935.976 173.328C935.413 167.638 933.195 164.938 926.594 165.494C916.015 166.384 905.324 165.902 894.685 166.182C874.749 166.712 880.553 164.706 879.118 182.317C878.85 185.59 879.975 186.73 883.406 186.614C891.265 186.35 899.137 186.531 907.005 186.531ZM908.357 222.857C900.475 222.857 892.573 223.188 884.716 222.738C879.686 222.45 878.288 224.53 878.184 229.027C877.922 240.54 875.044 251.392 869.993 261.793C867.944 266.011 865.808 266.773 862.098 264.245C860.955 263.464 859.66 262.912 858.465 262.201C852.533 258.668 845.135 256.808 841.177 250.963C836.766 244.457 842.851 237.877 842.984 231.184C843.088 225.723 846.077 218.913 836.447 218.356C833.911 218.208 834.813 215.94 834.798 214.548C834.707 206.894 834.853 199.233 834.7 191.579C834.647 188.951 835.709 187.543 837.709 185.917C846.181 179.032 846.046 171.33 837.36 164.641C834.913 162.757 834.804 160.543 834.734 157.944C834.356 144.169 840.071 132.299 846.198 120.52C847.459 118.096 849.442 118.329 851.512 118.33C856.849 118.332 862.195 118.537 867.517 118.27C872.464 118.022 876.717 118.296 878.247 124.198C878.837 126.469 880.793 127.049 883.143 127.185C900.258 128.174 917.365 129.261 934.468 130.424C938.65 130.709 938.419 127.86 938.014 125.437C936.82 118.278 939.71 115.665 946.665 116.909C947.788 117.109 948.981 116.888 950.138 116.943C956.118 117.232 964.182 114.349 967.589 117.943C972.317 122.93 974.389 130.993 976.134 138.101C977.951 145.485 977.567 153.176 974.899 160.677C972.213 168.222 970.247 175.408 975.847 183.465C978.514 187.301 977.039 194.28 976.796 199.806C976.567 204.952 979.374 211.242 972.234 214.42C970.464 215.206 971.217 217.306 971.118 218.851C970.241 232.723 969.256 246.59 968.648 260.472C968.494 263.999 967.697 265.411 963.961 265.273C957.01 265.02 950.036 265.013 943.085 265.273C939.09 265.425 937.922 263.99 938.005 260.077C938.237 249.176 937.897 238.262 938.179 227.364C938.29 223.063 936.931 221.76 932.691 221.919C924.59 222.22 916.469 222.006 908.357 222.006V222.857Z"
          fill="#26963B"/>
      <path
          d="M588.981 175.445C581.844 178.296 576.78 183.559 570.887 187.544C565.096 191.461 559.223 195.1 552.062 195.957C549.158 196.301 546.388 196.195 544.477 193.68C539.416 187.02 537.047 179.354 536.62 171.091C536.433 167.437 539.433 165.896 542.067 164.556C549.078 160.985 556.323 157.862 563.278 154.19C575.254 147.867 585.536 139.832 589.211 125.862C589.726 123.905 590.76 122.701 592.607 121.823C601.445 117.621 612.644 121.355 616.928 130.039C621.975 140.275 624.367 141.278 635.167 137.475C643.124 134.673 650.249 130.323 656.73 125.022C660.297 122.105 662.821 121.699 665.632 125.924C668.71 130.544 672.489 134.699 675.583 139.314C679.62 145.332 678.964 148.4 672.958 152.75C665.209 158.363 656.365 161.877 647.629 165.584C643.368 167.393 639.116 169.233 634.933 171.216C625.151 175.855 624.098 177.889 626.096 188.491C629.768 207.971 642.481 219.608 659.995 226.718C666.831 229.494 673.956 231.677 681.111 233.484C684.733 234.401 685.992 235.728 686.017 239.479C686.066 247.26 683.777 254.573 682.327 262.059C681.446 266.613 678.09 264.683 675.708 264.369C632.895 258.713 603.263 232.394 592.427 190.472C591.172 185.619 590.177 180.697 588.981 175.445Z"
          fill="#26963B"/>
      <path
          d="M455.975 193.082C455.975 184.495 455.863 175.908 456.029 167.326C456.094 164.053 455.071 162.501 451.678 162.942C450.993 163.031 450.282 163.006 449.592 162.944C443.908 162.435 436.344 165.526 433.051 161.626C430.262 158.325 431.973 151.018 432.132 145.496C432.298 139.781 429.544 132.221 433.295 128.889C436.461 126.077 443.862 127.726 449.367 127.953C454.061 128.146 457.564 127.446 458.237 121.975C458.778 117.601 461.519 116.638 465.584 116.856C471.601 117.173 477.651 117.094 483.676 116.876C487.133 116.752 489.158 117.661 488.557 121.455C487.746 126.571 489.574 128.282 494.909 128.025C500.588 127.75 508.053 125.353 511.606 129.051C515.116 132.705 512.621 140.097 512.589 145.831C512.558 151.319 515.097 158.433 511.498 161.881C507.946 165.286 500.851 163.112 495.382 162.804C489.767 162.486 488.34 164.424 488.461 169.829C488.805 185.138 488.712 200.458 488.502 215.771C488.44 220.286 489.871 221.743 494.149 220.308C494.801 220.089 495.591 220.208 496.189 219.911C510.246 212.983 518.701 220.732 526.353 231.156C528.363 233.893 528.679 235.693 526.113 238.232C513.005 251.206 498.087 260.921 479.789 264.823C472.089 266.466 464.565 265.657 457.169 263.281C448.798 260.591 440.588 257.25 431.644 256.949C428.616 256.847 427.78 255.46 427.833 252.582C427.986 244.232 428.033 235.873 427.818 227.524C427.729 224.087 428.994 223.106 432.243 223.203C438.503 223.388 444.781 223.036 451.033 223.329C455.084 223.52 456.154 221.962 456.048 218.142C455.814 209.793 455.975 201.436 455.975 193.082Z"
          fill="#26963B"/>
      <path
          d="M708.802 113.168C722.151 113.168 722.16 113.166 723.697 126.398C725.729 143.908 727.626 161.459 733.458 178.231C744.145 208.961 767.152 224.803 797.953 230.869C805.443 232.344 813.058 233.382 820.667 233.991C825.482 234.376 828.087 235.641 827.233 241.006C826.872 243.271 827.172 245.64 827.172 247.963C827.172 262.076 827.242 262.724 812.975 264.282C774.466 268.479 744.029 254.032 721.803 222.578C705.586 199.627 698.943 173.197 695.463 145.785C694.353 137.032 693.896 128.239 693.68 119.409C693.567 114.719 694.657 112.48 699.754 113.102C702.728 113.467 705.783 113.168 708.802 113.168Z"
          fill="#26963B"/>
      <path
          d="M758.37 184.803C757.145 180.09 759.58 176.943 764.121 174.351C772.548 169.543 780.528 163.942 789.02 159.259C801.668 152.285 815.052 158.722 818.453 172.897C818.856 174.58 818.168 175.51 817.273 176.565C808.099 187.393 798.155 197.362 785.544 204.228C768.008 213.779 759.852 209.357 758.383 189.582C758.279 188.202 758.37 186.807 758.37 184.803Z"
          fill="#26963B"/>
      <path
          d="M734.198 144.446C732.648 138.219 736.758 133.688 741.864 129.608C749.882 123.207 759.37 119.392 768.263 114.524C769.813 113.675 771.119 113.399 772.651 114.719C778.118 119.435 783.158 124.483 785.997 131.281C788.463 137.183 786.924 142.234 782.069 146.135C771.34 154.753 758.833 159.392 745.362 161.16C737.021 162.253 734.208 157.893 734.198 144.446Z"
          fill="#26963B"/>
    </g>
  </svg>
